{
  "accessors": [
    {
      "bufferView": 3,
      "componentType": 5126,
      "count": 1942,
      "max": [
        30.133142471313477,
        12.21653938293457,
        9.664070129394531
      ],
      "min": [
        -30.133142471313477,
        -12.172027587890625,
        -4.5421366691589355
      ],
      "type": "VEC3"
    },
    {
      "bufferView": 3,
      "byteOffset": 23304,
      "componentType": 5126,
      "count": 1942,
      "max": [
        0.9992939829826355,
        0.9989896416664124,
        0.9936062097549438
      ],
      "min": [
        -0.9983229041099548,
        -0.999765157699585,
        -0.9912624955177307
      ],
      "type": "VEC3"
    },
    {
      "bufferView": 2,
      "componentType": 5126,
      "count": 1942,
      "max": [
        0.9931358695030212,
        0.984636664390564
      ],
      "min": [
        0.02458500862121582,
        0.01778751239180565
      ],
      "type": "VEC2"
    },
    {
      "bufferView": 1,
      "componentType": 5125,
      "count": 9972,
      "type": "SCALAR"
    },
    {
      "bufferView": 5,
      "componentType": 5126,
      "count": 46,
      "max": [
        1.0,
        0.20286913216114044,
        0.0,
        0.0,
        0.20280182361602783,
        1.0,
        0.5460588335990906,
        0.0,
        0.9988539814949036,
        0.5263209342956543,
        1.0,
        0.0,
        18.77664566040039,
        12.167035102844238,
        28.8588924407959,
        1.0
      ],
      "min": [
        -0.054647888988256454,
        -0.33810409903526306,
        -0.9986521005630493,
        0.0,
        -0.20280182361602783,
        -0.9999905228614807,
        -0.5460588335990906,
        0.0,
        -0.9988539814949036,
        -0.5263209342956543,
        -0.7289021611213684,
        0.0,
        -18.776620864868164,
        -12.166988372802734,
        -28.858875274658203,
        1.0
      ],
      "type": "MAT4"
    },
    {
      "bufferView": 0,
      "componentType": 5123,
      "count": 1942,
      "type": "VEC4"
    },
    {
      "bufferView": 4,
      "componentType": 5126,
      "count": 1942,
      "max": [
        1.0,
        0.3337768316268921,
        0.1516433209180832,
        0.0
      ],
      "min": [
        0.5925272703170776,
        0.0,
        0.0,
        0.0
      ],
      "type": "VEC4"
    },
    {
      "bufferView": 6,
      "componentType": 5126,
      "count": 75,
      "max": [
        2.5
      ],
      "min": [
        0.0416666679084301
      ],
      "type": "SCALAR"
    },
    {
      "bufferView": 8,
      "componentType": 5126,
      "count": 75,
      "max": [
        5.0089909997552695e-09,
        -2.0816681711721685e-17,
        4.163336342344337e-17,
        1.0
      ],
      "min": [
        5.00899055566606e-09,
        -1.2576745200831851e-16,
        -7.632783294297951e-17,
        1.0
      ],
      "type": "VEC4"
    },
    {
      "bufferView": 6,
      "byteOffset": 300,
      "componentType": 5126,
      "count": 75,
      "max": [
        2.5
      ],
      "min": [
        0.0416666679084301
      ],
      "type": "SCALAR"
    },
    {
      "bufferView": 8,
      "byteOffset": 1200,
      "componentType": 5126,
      "count": 75,
      "max": [
        -0.03600943833589554,
        -1.3618921635115987e-17,
        5.3476224058650825e-17,
        0.999351441860199
      ],
      "min": [
        -0.03600943833589554,
        -1.0251670862609829e-16,
        -4.535434607350701e-17,
        0.999351441860199
      ],
      "type": "VEC4"
    },
    {
      "bufferView": 6,
      "byteOffset": 600,
      "componentType": 5126,
      "count": 75,
      "max": [
        2.5
      ],
      "min": [
        0.0416666679084301
      ],
      "type": "SCALAR"
    },
    {
      "bufferView": 8,
      "byteOffset": 2400,
      "componentType": 5126,
      "count": 75,
      "max": [
        0.1161503717303276,
        0.0011586010223254561,
        -0.0004811948456335813,
        0.9972047209739685
      ],
      "min": [
        0.07470725476741791,
        0.0011375675676390529,
        -0.0005290036788210273,
        0.9932308197021484
      ],
      "type": "VEC4"
    },
    {
      "bufferView": 6,
      "byteOffset": 900,
      "componentType": 5126,
      "count": 75,
      "max": [
        2.5
      ],
      "min": [
        0.0416666679084301
      ],
      "type": "SCALAR"
    },
    {
      "bufferView": 8,
      "byteOffset": 3600,
      "componentType": 5126,
      "count": 75,
      "max": [
        -0.2227553278207779,
        0.45986807346343994,
        0.19252103567123413,
        0.8377571702003479
      ],
      "min": [
        -0.2227553278207779,
        0.45986807346343994,
        0.19252103567123413,
        0.8377571702003479
      ],
      "type": "VEC4"
    },
    {
      "bufferView": 6,
      "byteOffset": 1200,
      "componentType": 5126,
      "count": 75,
      "max": [
        2.5
      ],
      "min": [
        0.0416666679084301
      ],
      "type": "SCALAR"
    },
    {
      "bufferView": 8,
      "byteOffset": 4800,
      "componentType": 5126,
      "count": 75,
      "max": [
        -1.543204564136147e-09,
        1.0408340855860843e-16,
        1.6653345369377348e-16,
        1.0
      ],
      "min": [
        -1.5432046751584494e-09,
        -1.1102230246251565e-16,
        6.938893903907228e-17,
        1.0
      ],
      "type": "VEC4"
    },
    {
      "bufferView": 6,
      "byteOffset": 1500,
      "componentType": 5126,
      "count": 75,
      "max": [
        2.5
      ],
      "min": [
        0.0416666679084301
      ],
      "type": "SCALAR"
    },
    {
      "bufferView": 8,
      "byteOffset": 6000,
      "componentType": 5126,
      "count": 75,
      "max": [
        0.026845788583159447,
        1.6895264596558077e-16,
        6.964335332571399e-17,
        0.9996395707130432
      ],
      "min": [
        0.026845788583159447,
        -1.969149935732908e-17,
        -2.8444124066240504e-17,
        0.9996395707130432
      ],
      "type": "VEC4"
    },
    {
      "bufferView": 6,
      "byteOffset": 1800,
      "componentType": 5126,
      "count": 77,
      "max": [
        2.5
      ],
      "min": [
        0.0416666679084301
      ],
      "type": "SCALAR"
    },
    {
      "bufferView": 8,
      "byteOffset": 7200,
      "componentType": 5126,
      "count": 77,
      "max": [
        0.12561960518360138,
        1.8080576033166143e-16,
        5.75043190178207e-17,
        0.9999997615814209
      ],
      "min": [
        -0.04417228698730469,
        -3.142284446543581e-17,
        -2.831611952080915e-17,
        0.9920784831047058
      ],
      "type": "VEC4"
    },
    {
      "bufferView": 6,
      "byteOffset": 2108,
      "componentType": 5126,
      "count": 75,
      "max": [
        2.5
      ],
      "min": [
        0.0416666679084301
      ],
      "type": "SCALAR"
    },
    {
      "bufferView": 8,
      "byteOffset": 8432,
      "componentType": 5126,
      "count": 75,
      "max": [
        -0.03467869386076927,
        -0.0018964695045724511,
        0.054573096334934235,
        0.9979056119918823
      ],
      "min": [
        -0.03467869386076927,
        -0.0018964695045724511,
        0.054573096334934235,
        0.9979056119918823
      ],
      "type": "VEC4"
    },
    {
      "bufferView": 6,
      "byteOffset": 2408,
      "componentType": 5126,
      "count": 75,
      "max": [
        2.5
      ],
      "min": [
        0.0416666679084301
      ],
      "type": "SCALAR"
    },
    {
      "bufferView": 8,
      "byteOffset": 9632,
      "componentType": 5126,
      "count": 75,
      "max": [
        2.625390571608932e-09,
        5.898059818321144e-17,
        -4.163336342344337e-17,
        1.0
      ],
      "min": [
        2.625390349564327e-09,
        -1.1796119636642288e-16,
        -9.71445146547012e-17,
        1.0
      ],
      "type": "VEC4"
    },
    {
      "bufferView": 6,
      "byteOffset": 2708,
      "componentType": 5126,
      "count": 75,
      "max": [
        2.5
      ],
      "min": [
        0.0416666679084301
      ],
      "type": "SCALAR"
    },
    {
      "bufferView": 8,
      "byteOffset": 10832,
      "componentType": 5126,
      "count": 75,
      "max": [
        0.06231206655502319,
        1.9304487025878384e-16,
        3.92284317453965e-17,
        0.9980567097663879
      ],
      "min": [
        0.06231206655502319,
        -5.670225160866478e-17,
        -1.8059113012376107e-17,
        0.9980567097663879
      ],
      "type": "VEC4"
    },
    {
      "bufferView": 6,
      "byteOffset": 3008,
      "componentType": 5126,
      "count": 75,
      "max": [
        2.5
      ],
      "min": [
        0.0416666679084301
      ],
      "type": "SCALAR"
    },
    {
      "bufferView": 8,
      "byteOffset": 12032,
      "componentType": 5126,
      "count": 75,
      "max": [
        0.07764033228158951,
        1.707799474957145e-16,
        4.7433808650293867e-17,
        0.9969814419746399
      ],
      "min": [
        0.07764033228158951,
        -7.286500343592632e-17,
        8.373393003738527e-18,
        0.9969814419746399
      ],
      "type": "VEC4"
    },
    {
      "bufferView": 6,
      "byteOffset": 3308,
      "componentType": 5126,
      "count": 75,
      "max": [
        2.5
      ],
      "min": [
        0.0416666679084301
      ],
      "type": "SCALAR"
    },
    {
      "bufferView": 8,
      "byteOffset": 13232,
      "componentType": 5126,
      "count": 75,
      "max": [
        0.07172542065382004,
        1.592972921571345e-06,
        -0.0006057198042981327,
        0.9999997615814209
      ],
      "min": [
        -0.0025871829129755497,
        -4.353582698968239e-05,
        -0.0006072823307476938,
        0.9974242448806763
      ],
      "type": "VEC4"
    },
    {
      "bufferView": 6,
      "byteOffset": 3608,
      "componentType": 5126,
      "count": 75,
      "max": [
        2.5
      ],
      "min": [
        0.0416666679084301
      ],
      "type": "SCALAR"
    },
    {
      "bufferView": 8,
      "byteOffset": 14432,
      "componentType": 5126,
      "count": 75,
      "max": [
        1.6877585995445088e-09,
        2.1684043449710089e-16,
        1.0408340855860843e-17,
        1.0
      ],
      "min": [
        1.6877583774999039e-09,
        -5.843849709696869e-17,
        -7.719519468096792e-17,
        1.0
      ],
      "type": "VEC4"
    },
    {
      "bufferView": 6,
      "byteOffset": 3908,
      "componentType": 5126,
      "count": 75,
      "max": [
        2.5
      ],
      "min": [
        0.0416666679084301
      ],
      "type": "SCALAR"
    },
    {
      "bufferView": 8,
      "byteOffset": 15632,
      "componentType": 5126,
      "count": 75,
      "max": [
        -0.019924892112612724,
        0.0015708972932770848,
        -0.014615311287343502,
        0.9996933937072754
      ],
      "min": [
        -0.019924892112612724,
        0.0015708972932770848,
        -0.014615311287343502,
        0.9996933937072754
      ],
      "type": "VEC4"
    },
    {
      "bufferView": 6,
      "byteOffset": 4208,
      "componentType": 5126,
      "count": 75,
      "max": [
        2.5
      ],
      "min": [
        0.0416666679084301
      ],
      "type": "SCALAR"
    },
    {
      "bufferView": 8,
      "byteOffset": 16832,
      "componentType": 5126,
      "count": 75,
      "max": [
        0.159915953874588,
        0.05762747675180435,
        -0.02991112321615219,
        0.984993040561676
      ],
      "min": [
        0.159915953874588,
        0.05762747675180435,
        -0.02991112321615219,
        0.984993040561676
      ],
      "type": "VEC4"
    },
    {
      "bufferView": 6,
      "byteOffset": 4508,
      "componentType": 5126,
      "count": 75,
      "max": [
        2.5
      ],
      "min": [
        0.0416666679084301
      ],
      "type": "SCALAR"
    },
    {
      "bufferView": 8,
      "byteOffset": 18032,
      "componentType": 5126,
      "count": 75,
      "max": [
        0.12005364894866943,
        -0.00430571474134922,
        -0.027380842715501785,
        0.9983207583427429
      ],
      "min": [
        0.05066714063286781,
        -0.00622725673019886,
        -0.027747973799705505,
        0.9923701882362366
      ],
      "type": "VEC4"
    },
    {
      "bufferView": 6,
      "byteOffset": 4808,
      "componentType": 5126,
      "count": 75,
      "max": [
        2.5
      ],
      "min": [
        0.0416666679084301
      ],
      "type": "SCALAR"
    },
    {
      "bufferView": 8,
      "byteOffset": 19232,
      "componentType": 5126,
      "count": 75,
      "max": [
        -4.261518693482458e-09,
        1.1796119636642288e-16,
        8.326672684688674e-17,
        1.0
      ],
      "min": [
        -4.261518693482458e-09,
        -1.214306433183765e-16,
        -5.551115123125783e-17,
        1.0
      ],
      "type": "VEC4"
    },
    {
      "bufferView": 6,
      "byteOffset": 5108,
      "componentType": 5126,
      "count": 75,
      "max": [
        2.5
      ],
      "min": [
        0.0416666679084301
      ],
      "type": "SCALAR"
    },
    {
      "bufferView": 8,
      "byteOffset": 20432,
      "componentType": 5126,
      "count": 75,
      "max": [
        0.01613747514784336,
        -0.0005282850470393896,
        0.03271474689245224,
        0.9993342757225037
      ],
      "min": [
        0.01613747514784336,
        -0.0005282850470393896,
        0.03271474689245224,
        0.9993342757225037
      ],
      "type": "VEC4"
    },
    {
      "bufferView": 6,
      "byteOffset": 5408,
      "componentType": 5126,
      "count": 75,
      "max": [
        2.5
      ],
      "min": [
        0.0416666679084301
      ],
      "type": "SCALAR"
    },
    {
      "bufferView": 8,
      "byteOffset": 21632,
      "componentType": 5126,
      "count": 75,
      "max": [
        0.15318499505519867,
        -0.0008189097279682755,
        -0.021995320916175842,
        0.9879523515701294
      ],
      "min": [
        0.15318499505519867,
        -0.0008189097279682755,
        -0.021995320916175842,
        0.9879523515701294
      ],
      "type": "VEC4"
    },
    {
      "bufferView": 6,
      "byteOffset": 5708,
      "componentType": 5126,
      "count": 75,
      "max": [
        2.5
      ],
      "min": [
        0.0416666679084301
      ],
      "type": "SCALAR"
    },
    {
      "bufferView": 8,
      "byteOffset": 22832,
      "componentType": 5126,
      "count": 75,
      "max": [
        0.1790103018283844,
        -0.0078035686165094376,
        -0.0845494344830513,
        0.9913510680198669
      ],
      "min": [
        0.09929259121417999,
        -0.014678027480840683,
        -0.08545850217342377,
        0.9800975918769836
      ],
      "type": "VEC4"
    },
    {
      "bufferView": 6,
      "byteOffset": 6008,
      "componentType": 5126,
      "count": 75,
      "max": [
        2.5
      ],
      "min": [
        0.0416666679084301
      ],
      "type": "SCALAR"
    },
    {
      "bufferView": 8,
      "byteOffset": 24032,
      "componentType": 5126,
      "count": 75,
      "max": [
        0.16043046116828918,
        0.004113466013222933,
        0.002578034298494458,
        0.999922513961792
      ],
      "min": [
        0.011578856036067009,
        0.003771454095840454,
        0.0019873410928994417,
        0.9870365858078003
      ],
      "type": "VEC4"
    },
    {
      "bufferView": 6,
      "byteOffset": 6308,
      "componentType": 5126,
      "count": 75,
      "max": [
        2.5
      ],
      "min": [
        0.0416666679084301
      ],
      "type": "SCALAR"
    },
    {
      "bufferView": 7,
      "componentType": 5126,
      "count": 75,
      "max": [
        24.736005783081055,
        3.97139573097229,
        1.9493438005447388
      ],
      "min": [
        24.0251522064209,
        3.97139573097229,
        1.9493438005447388
      ],
      "type": "VEC3"
    },
    {
      "bufferView": 6,
      "byteOffset": 6608,
      "componentType": 5126,
      "count": 75,
      "max": [
        2.5
      ],
      "min": [
        0.0416666679084301
      ],
      "type": "SCALAR"
    },
    {
      "bufferView": 8,
      "byteOffset": 25232,
      "componentType": 5126,
      "count": 75,
      "max": [
        1.053671194739536e-08,
        1.1102230246251565e-16,
        5.551115123125783e-17,
        1.0
      ],
      "min": [
        1.053671194739536e-08,
        -1.3877787807814457e-16,
        -6.938893903907228e-17,
        1.0
      ],
      "type": "VEC4"
    },
    {
      "bufferView": 6,
      "byteOffset": 6908,
      "componentType": 5126,
      "count": 75,
      "max": [
        2.5
      ],
      "min": [
        0.0416666679084301
      ],
      "type": "SCALAR"
    },
    {
      "bufferView": 8,
      "byteOffset": 26432,
      "componentType": 5126,
      "count": 75,
      "max": [
        -0.03600943833589554,
        3.220423566800035e-17,
        5.52252842290044e-17,
        0.999351441860199
      ],
      "min": [
        -0.03600943833589554,
        -2.209011369160176e-16,
        -7.159272686192586e-17,
        0.999351441860199
      ],
      "type": "VEC4"
    },
    {
      "bufferView": 6,
      "byteOffset": 7208,
      "componentType": 5126,
      "count": 75,
      "max": [
        2.5
      ],
      "min": [
        0.0416666679084301
      ],
      "type": "SCALAR"
    },
    {
      "bufferView": 8,
      "byteOffset": 27632,
      "componentType": 5126,
      "count": 75,
      "max": [
        0.11459604650735855,
        0.0011581105645745993,
        -0.00048237404553219676,
        0.9971281290054321
      ],
      "min": [
        0.07572238147258759,
        0.0011383940000087023,
        -0.0005272229900583625,
        0.9934113621711731
      ],
      "type": "VEC4"
    },
    {
      "bufferView": 6,
      "byteOffset": 7508,
      "componentType": 5126,
      "count": 75,
      "max": [
        2.5
      ],
      "min": [
        0.0416666679084301
      ],
      "type": "SCALAR"
    },
    {
      "bufferView": 8,
      "byteOffset": 28832,
      "componentType": 5126,
      "count": 75,
      "max": [
        -0.2227553278207779,
        0.45986807346343994,
        0.19252103567123413,
        0.8377571702003479
      ],
      "min": [
        -0.2227553278207779,
        0.45986807346343994,
        0.19252103567123413,
        0.8377571702003479
      ],
      "type": "VEC4"
    },
    {
      "bufferView": 6,
      "byteOffset": 7808,
      "componentType": 5126,
      "count": 75,
      "max": [
        2.5
      ],
      "min": [
        0.0416666679084301
      ],
      "type": "SCALAR"
    },
    {
      "bufferView": 8,
      "byteOffset": 30032,
      "componentType": 5126,
      "count": 75,
      "max": [
        7.450580596923828e-09,
        5.4643789493269423e-17,
        1.734723475976807e-17,
        1.0
      ],
      "min": [
        7.450580596923828e-09,
        -7.600257229123386e-17,
        -1.3877787807814457e-17,
        1.0
      ],
      "type": "VEC4"
    },
    {
      "bufferView": 6,
      "byteOffset": 8108,
      "componentType": 5126,
      "count": 75,
      "max": [
        2.5
      ],
      "min": [
        0.0416666679084301
      ],
      "type": "SCALAR"
    },
    {
      "bufferView": 8,
      "byteOffset": 31232,
      "componentType": 5126,
      "count": 75,
      "max": [
        0.026845788583159447,
        9.717385640538968e-17,
        4.4248293097960304e-17,
        0.9996395707130432
      ],
      "min": [
        0.026845788583159447,
        -5.267154275875924e-17,
        4.096891984306219e-18,
        0.9996395707130432
      ],
      "type": "VEC4"
    },
    {
      "bufferView": 6,
      "byteOffset": 8408,
      "componentType": 5126,
      "count": 77,
      "max": [
        2.5
      ],
      "min": [
        0.0416666679084301
      ],
      "type": "SCALAR"
    },
    {
      "bufferView": 8,
      "byteOffset": 32432,
      "componentType": 5126,
      "count": 77,
      "max": [
        0.11304381489753723,
        1.107717924683652e-16,
        5.804569880256931e-17,
        0.9999997615814209
      ],
      "min": [
        -0.010815994814038277,
        -2.952395872509173e-17,
        1.5926866386341016e-17,
        0.9935899972915649
      ],
      "type": "VEC4"
    },
    {
      "bufferView": 6,
      "byteOffset": 8716,
      "componentType": 5126,
      "count": 75,
      "max": [
        2.5
      ],
      "min": [
        0.0416666679084301
      ],
      "type": "SCALAR"
    },
    {
      "bufferView": 8,
      "byteOffset": 33664,
      "componentType": 5126,
      "count": 75,
      "max": [
        0.04959539696574211,
        0.0027122809551656246,
        0.05459972470998764,
        0.9983925223350525
      ],
      "min": [
        0.015184661373496056,
        0.0008304393850266933,
        0.05453863739967346,
        0.9972755312919617
      ],
      "type": "VEC4"
    },
    {
      "bufferView": 6,
      "byteOffset": 9016,
      "componentType": 5126,
      "count": 75,
      "max": [
        2.5
      ],
      "min": [
        0.0416666679084301
      ],
      "type": "SCALAR"
    },
    {
      "bufferView": 8,
      "byteOffset": 34864,
      "componentType": 5126,
      "count": 75,
      "max": [
        7.450580596923828e-09,
        9.367506770274758e-17,
        4.163336342344337e-17,
        1.0
      ],
      "min": [
        7.450580596923828e-09,
        -7.979727989493313e-17,
        -4.163336342344337e-17,
        1.0
      ],
      "type": "VEC4"
    },
    {
      "bufferView": 6,
      "byteOffset": 9316,
      "componentType": 5126,
      "count": 75,
      "max": [
        2.5
      ],
      "min": [
        0.0416666679084301
      ],
      "type": "SCALAR"
    },
    {
      "bufferView": 8,
      "byteOffset": 36064,
      "componentType": 5126,
      "count": 75,
      "max": [
        0.06231206655502319,
        1.2552434296454469e-15,
        -2.0822895492483183e-16,
        0.9980567097663879
      ],
      "min": [
        0.06231206655502319,
        1.0760493744890634e-15,
        -2.9587382302250864e-16,
        0.9980567097663879
      ],
      "type": "VEC4"
    },
    {
      "bufferView": 6,
      "byteOffset": 9616,
      "componentType": 5126,
      "count": 75,
      "max": [
        2.5
      ],
      "min": [
        0.0416666679084301
      ],
      "type": "SCALAR"
    },
    {
      "bufferView": 8,
      "byteOffset": 37264,
      "componentType": 5126,
      "count": 75,
      "max": [
        0.07764033228158951,
        -2.4231999023181013e-15,
        9.860961033821022e-17,
        0.9969814419746399
      ],
      "min": [
        0.07764033228158951,
        -2.5877140294656206e-15,
        2.8504170761266953e-17,
        0.9969814419746399
      ],
      "type": "VEC4"
    },
    {
      "bufferView": 6,
      "byteOffset": 9916,
      "componentType": 5126,
      "count": 75,
      "max": [
        2.5
      ],
      "min": [
        0.0416666679084301
      ],
      "type": "SCALAR"
    },
    {
      "bufferView": 8,
      "byteOffset": 38464,
      "componentType": 5126,
      "count": 75,
      "max": [
        0.16550152003765106,
        -5.6279750424437225e-05,
        -0.0005989112542010844,
        0.9956929087638855
      ],
      "min": [
        0.09271053224802017,
        -0.00010048464901046827,
        -0.00060466886498034,
        0.9862093329429626
      ],
      "type": "VEC4"
    },
    {
      "bufferView": 6,
      "byteOffset": 10216,
      "componentType": 5126,
      "count": 75,
      "max": [
        2.5
      ],
      "min": [
        0.0416666679084301
      ],
      "type": "SCALAR"
    },
    {
      "bufferView": 8,
      "byteOffset": 39664,
      "componentType": 5126,
      "count": 75,
      "max": [
        1.053671194739536e-08,
        5.551115123125783e-17,
        4.163336342344337e-17,
        1.0
      ],
      "min": [
        1.053671194739536e-08,
        -6.245004513516506e-17,
        -5.551115123125783e-17,
        1.0
      ],
      "type": "VEC4"
    },
    {
      "bufferView": 6,
      "byteOffset": 10516,
      "componentType": 5126,
      "count": 75,
      "max": [
        2.5
      ],
      "min": [
        0.0416666679084301
      ],
      "type": "SCALAR"
    },
    {
      "bufferView": 8,
      "byteOffset": 40864,
      "componentType": 5126,
      "count": 75,
      "max": [
        0.07607533782720566,
        0.00016149143630173057,
        -0.014698604121804237,
        0.9969937205314636
      ],
      "min": [
        0.07607533782720566,
        0.00016149143630173057,
        -0.014698604121804237,
        0.9969937205314636
      ],
      "type": "VEC4"
    },
    {
      "bufferView": 6,
      "byteOffset": 10816,
      "componentType": 5126,
      "count": 75,
      "max": [
        2.5
      ],
      "min": [
        0.0416666679084301
      ],
      "type": "SCALAR"
    },
    {
      "bufferView": 8,
      "byteOffset": 42064,
      "componentType": 5126,
      "count": 75,
      "max": [
        0.08140680193901062,
        7.292092746277981e-17,
        -4.191883668772522e-17,
        0.9966809749603271
      ],
      "min": [
        0.08140680193901062,
        -2.734184965173194e-17,
        -1.1548171917157273e-16,
        0.9966809749603271
      ],
      "type": "VEC4"
    },
    {
      "bufferView": 6,
      "byteOffset": 11116,
      "componentType": 5126,
      "count": 75,
      "max": [
        2.5
      ],
      "min": [
        0.0416666679084301
      ],
      "type": "SCALAR"
    },
    {
      "bufferView": 8,
      "byteOffset": 43264,
      "componentType": 5126,
      "count": 75,
      "max": [
        0.156977117061615,
        -0.005404201336205006,
        -0.02712957374751568,
        0.9955213069915771
      ],
      "min": [
        0.09027087688446045,
        -0.007243997883051634,
        -0.027555106207728386,
        0.9872029423713684
      ],
      "type": "VEC4"
    },
    {
      "bufferView": 6,
      "byteOffset": 11416,
      "componentType": 5126,
      "count": 75,
      "max": [
        2.5
      ],
      "min": [
        0.0416666679084301
      ],
      "type": "SCALAR"
    },
    {
      "bufferView": 8,
      "byteOffset": 44464,
      "componentType": 5126,
      "count": 75,
      "max": [
        1.2904783908140871e-08,
        8.326672684688674e-17,
        9.71445146547012e-17,
        1.0
      ],
      "min": [
        1.2904783908140871e-08,
        -6.938893903907228e-17,
        -6.938893903907228e-17,
        1.0
      ],
      "type": "VEC4"
    },
    {
      "bufferView": 6,
      "byteOffset": 11716,
      "componentType": 5126,
      "count": 75,
      "max": [
        2.5
      ],
      "min": [
        0.0416666679084301
      ],
      "type": "SCALAR"
    },
    {
      "bufferView": 8,
      "byteOffset": 45664,
      "componentType": 5126,
      "count": 75,
      "max": [
        0.16017863154411316,
        0.004198182839900255,
        0.03244855999946594,
        0.9865456223487854
      ],
      "min": [
        0.16017863154411316,
        0.004198182839900255,
        0.03244855999946594,
        0.9865456223487854
      ],
      "type": "VEC4"
    },
    {
      "bufferView": 6,
      "byteOffset": 12016,
      "componentType": 5126,
      "count": 75,
      "max": [
        2.5
      ],
      "min": [
        0.0416666679084301
      ],
      "type": "SCALAR"
    },
    {
      "bufferView": 8,
      "byteOffset": 46864,
      "componentType": 5126,
      "count": 75,
      "max": [
        0.19857294857501984,
        -0.0018321622628718615,
        -0.02193417213857174,
        0.9798389077186584
      ],
      "min": [
        0.19857294857501984,
        -0.0018321622628718615,
        -0.02193417213857174,
        0.9798389077186584
      ],
      "type": "VEC4"
    },
    {
      "bufferView": 6,
      "byteOffset": 12316,
      "componentType": 5126,
      "count": 75,
      "max": [
        2.5
      ],
      "min": [
        0.0416666679084301
      ],
      "type": "SCALAR"
    },
    {
      "bufferView": 8,
      "byteOffset": 48064,
      "componentType": 5126,
      "count": 75,
      "max": [
        0.2534673511981964,
        -0.014266259968280792,
        -0.08317870646715164,
        0.9809573888778687
      ],
      "min": [
        0.1742369830608368,
        -0.021103406324982643,
        -0.08461988717317581,
        0.9635301232337952
      ],
      "type": "VEC4"
    },
    {
      "bufferView": 6,
      "byteOffset": 12616,
      "componentType": 5126,
      "count": 75,
      "max": [
        2.5
      ],
      "min": [
        0.0416666679084301
      ],
      "type": "SCALAR"
    },
    {
      "bufferView": 8,
      "byteOffset": 49264,
      "componentType": 5126,
      "count": 75,
      "max": [
        0.15732303261756897,
        0.004107190761715174,
        0.00238071009516716,
        0.9980046153068542
      ],
      "min": [
        0.06297586113214493,
        0.003899018745869398,
        0.002000278327614069,
        0.987536609172821
      ],
      "type": "VEC4"
    },
    {
      "bufferView": 6,
      "byteOffset": 12916,
      "componentType": 5126,
      "count": 75,
      "max": [
        2.5
      ],
      "min": [
        0.0416666679084301
      ],
      "type": "SCALAR"
    },
    {
      "bufferView": 7,
      "byteOffset": 900,
      "componentType": 5126,
      "count": 75,
      "max": [
        -25.910205841064453,
        0.19920000433921814,
        1.9493438005447388
      ],
      "min": [
        -26.870399475097656,
        0.19920000433921814,
        1.9493438005447388
      ],
      "type": "VEC3"
    }
  ],
  "animations": [
    {
      "channels": [
        {
          "sampler": 0,
          "target": {
            "node": 13,
            "path": "rotation"
          }
        },
        {
          "sampler": 1,
          "target": {
            "node": 12,
            "path": "rotation"
          }
        },
        {
          "sampler": 2,
          "target": {
            "node": 11,
            "path": "rotation"
          }
        },
        {
          "sampler": 3,
          "target": {
            "node": 10,
            "path": "rotation"
          }
        },
        {
          "sampler": 4,
          "target": {
            "node": 17,
            "path": "rotation"
          }
        },
        {
          "sampler": 5,
          "target": {
            "node": 16,
            "path": "rotation"
          }
        },
        {
          "sampler": 6,
          "target": {
            "node": 15,
            "path": "rotation"
          }
        },
        {
          "sampler": 7,
          "target": {
            "node": 14,
            "path": "rotation"
          }
        },
        {
          "sampler": 8,
          "target": {
            "node": 21,
            "path": "rotation"
          }
        },
        {
          "sampler": 9,
          "target": {
            "node": 20,
            "path": "rotation"
          }
        },
        {
          "sampler": 10,
          "target": {
            "node": 19,
            "path": "rotation"
          }
        },
        {
          "sampler": 11,
          "target": {
            "node": 18,
            "path": "rotation"
          }
        },
        {
          "sampler": 12,
          "target": {
            "node": 25,
            "path": "rotation"
          }
        },
        {
          "sampler": 13,
          "target": {
            "node": 24,
            "path": "rotation"
          }
        },
        {
          "sampler": 14,
          "target": {
            "node": 23,
            "path": "rotation"
          }
        },
        {
          "sampler": 15,
          "target": {
            "node": 22,
            "path": "rotation"
          }
        },
        {
          "sampler": 16,
          "target": {
            "node": 29,
            "path": "rotation"
          }
        },
        {
          "sampler": 17,
          "target": {
            "node": 28,
            "path": "rotation"
          }
        },
        {
          "sampler": 18,
          "target": {
            "node": 27,
            "path": "rotation"
          }
        },
        {
          "sampler": 19,
          "target": {
            "node": 26,
            "path": "rotation"
          }
        },
        {
          "sampler": 20,
          "target": {
            "node": 9,
            "path": "rotation"
          }
        },
        {
          "sampler": 21,
          "target": {
            "node": 8,
            "path": "translation"
          }
        },
        {
          "sampler": 22,
          "target": {
            "node": 35,
            "path": "rotation"
          }
        },
        {
          "sampler": 23,
          "target": {
            "node": 34,
            "path": "rotation"
          }
        },
        {
          "sampler": 24,
          "target": {
            "node": 33,
            "path": "rotation"
          }
        },
        {
          "sampler": 25,
          "target": {
            "node": 32,
            "path": "rotation"
          }
        },
        {
          "sampler": 26,
          "target": {
            "node": 39,
            "path": "rotation"
          }
        },
        {
          "sampler": 27,
          "target": {
            "node": 38,
            "path": "rotation"
          }
        },
        {
          "sampler": 28,
          "target": {
            "node": 37,
            "path": "rotation"
          }
        },
        {
          "sampler": 29,
          "target": {
            "node": 36,
            "path": "rotation"
          }
        },
        {
          "sampler": 30,
          "target": {
            "node": 43,
            "path": "rotation"
          }
        },
        {
          "sampler": 31,
          "target": {
            "node": 42,
            "path": "rotation"
          }
        },
        {
          "sampler": 32,
          "target": {
            "node": 41,
            "path": "rotation"
          }
        },
        {
          "sampler": 33,
          "target": {
            "node": 40,
            "path": "rotation"
          }
        },
        {
          "sampler": 34,
          "target": {
            "node": 47,
            "path": "rotation"
          }
        },
        {
          "sampler": 35,
          "target": {
            "node": 46,
            "path": "rotation"
          }
        },
        {
          "sampler": 36,
          "target": {
            "node": 45,
            "path": "rotation"
          }
        },
        {
          "sampler": 37,
          "target": {
            "node": 44,
            "path": "rotation"
          }
        },
        {
          "sampler": 38,
          "target": {
            "node": 51,
            "path": "rotation"
          }
        },
        {
          "sampler": 39,
          "target": {
            "node": 50,
            "path": "rotation"
          }
        },
        {
          "sampler": 40,
          "target": {
            "node": 49,
            "path": "rotation"
          }
        },
        {
          "sampler": 41,
          "target": {
            "node": 48,
            "path": "rotation"
          }
        },
        {
          "sampler": 42,
          "target": {
            "node": 31,
            "path": "rotation"
          }
        },
        {
          "sampler": 43,
          "target": {
            "node": 30,
            "path": "translation"
          }
        }
      ],
      "name": "Idle",
      "samplers": [
        {
          "input": 7,
          "interpolation": "LINEAR",
          "output": 8
        },
        {
          "input": 9,
          "interpolation": "LINEAR",
          "output": 10
        },
        {
          "input": 11,
          "interpolation": "LINEAR",
          "output": 12
        },
        {
          "input": 13,
          "interpolation": "LINEAR",
          "output": 14
        },
        {
          "input": 15,
          "interpolation": "LINEAR",
          "output": 16
        },
        {
          "input": 17,
          "interpolation": "LINEAR",
          "output": 18
        },
        {
          "input": 19,
          "interpolation": "LINEAR",
          "output": 20
        },
        {
          "input": 21,
          "interpolation": "LINEAR",
          "output": 22
        },
        {
          "input": 23,
          "interpolation": "LINEAR",
          "output": 24
        },
        {
          "input": 25,
          "interpolation": "LINEAR",
          "output": 26
        },
        {
          "input": 27,
          "interpolation": "LINEAR",
          "output": 28
        },
        {
          "input": 29,
          "interpolation": "LINEAR",
          "output": 30
        },
        {
          "input": 31,
          "interpolation": "LINEAR",
          "output": 32
        },
        {
          "input": 33,
          "interpolation": "LINEAR",
          "output": 34
        },
        {
          "input": 35,
          "interpolation": "LINEAR",
          "output": 36
        },
        {
          "input": 37,
          "interpolation": "LINEAR",
          "output": 38
        },
        {
          "input": 39,
          "interpolation": "LINEAR",
          "output": 40
        },
        {
          "input": 41,
          "interpolation": "LINEAR",
          "output": 42
        },
        {
          "input": 43,
          "interpolation": "LINEAR",
          "output": 44
        },
        {
          "input": 45,
          "interpolation": "LINEAR",
          "output": 46
        },
        {
          "input": 47,
          "interpolation": "LINEAR",
          "output": 48
        },
        {
          "input": 49,
          "interpolation": "LINEAR",
          "output": 50
        },
        {
          "input": 51,
          "interpolation": "LINEAR",
          "output": 52
        },
        {
          "input": 53,
          "interpolation": "LINEAR",
          "output": 54
        },
        {
          "input": 55,
          "interpolation": "LINEAR",
          "output": 56
        },
        {
          "input": 57,
          "interpolation": "LINEAR",
          "output": 58
        },
        {
          "input": 59,
          "interpolation": "LINEAR",
          "output": 60
        },
        {
          "input": 61,
          "interpolation": "LINEAR",
          "output": 62
        },
        {
          "input": 63,
          "interpolation": "LINEAR",
          "output": 64
        },
        {
          "input": 65,
          "interpolation": "LINEAR",
          "output": 66
        },
        {
          "input": 67,
          "interpolation": "LINEAR",
          "output": 68
        },
        {
          "input": 69,
          "interpolation": "LINEAR",
          "output": 70
        },
        {
          "input": 71,
          "interpolation": "LINEAR",
          "output": 72
        },
        {
          "input": 73,
          "interpolation": "LINEAR",
          "output": 74
        },
        {
          "input": 75,
          "interpolation": "LINEAR",
          "output": 76
        },
        {
          "input": 77,
          "interpolation": "LINEAR",
          "output": 78
        },
        {
          "input": 79,
          "interpolation": "LINEAR",
          "output": 80
        },
        {
          "input": 81,
          "interpolation": "LINEAR",
          "output": 82
        },
        {
          "input": 83,
          "interpolation": "LINEAR",
          "output": 84
        },
        {
          "input": 85,
          "interpolation": "LINEAR",
          "output": 86
        },
        {
          "input": 87,
          "interpolation": "LINEAR",
          "output": 88
        },
        {
          "input": 89,
          "interpolation": "LINEAR",
          "output": 90
        },
        {
          "input": 91,
          "interpolation": "LINEAR",
          "output": 92
        },
        {
          "input": 93,
          "interpolation": "LINEAR",
          "output": 94
        }
      ]
    }
  ],
  "asset": {
    "extras": {
      "author": "PolyOne Studio (https://sketchfab.com/polyone)",
      "license": "CC-BY-4.0 (http://creativecommons.org/licenses/by/4.0/)",
      "source": "https://sketchfab.com/3d-models/free-pack-vr-hands-rigged-b3b8309e59c748e3956531c8f57dd233",
      "title": "Free Pack - VR Hands ( Rigged )"
    },
    "generator": "Sketchfab-0.6.0",
    "version": "2.0"
  },
  "bufferViews": [
    {
      "buffer": 0,
      "byteLength": 15536,
      "byteStride": 8,
      "name": "shortBufferViews",
      "target": 34962
    },
    {
      "buffer": 0,
      "byteLength": 39888,
      "byteOffset": 15536,
      "name": "floatBufferViews",
      "target": 34963
    },
    {
      "buffer": 0,
      "byteLength": 15536,
      "byteOffset": 55424,
      "byteStride": 8,
      "name": "floatBufferViews",
      "target": 34962
    },
    {
      "buffer": 0,
      "byteLength": 46608,
      "byteOffset": 70960,
      "byteStride": 12,
      "name": "floatBufferViews",
      "target": 34962
    },
    {
      "buffer": 0,
      "byteLength": 31072,
      "byteOffset": 117568,
      "byteStride": 16,
      "name": "floatBufferViews",
      "target": 34962
    },
    {
      "buffer": 0,
      "byteLength": 2944,
      "byteOffset": 148640,
      "name": "floatBufferViews"
    },
    {
      "buffer": 0,
      "byteLength": 13216,
      "byteOffset": 151584,
      "name": "floatBufferViews"
    },
    {
      "buffer": 0,
      "byteLength": 1800,
      "byteOffset": 164800,
      "byteStride": 12,
      "name": "floatBufferViews"
    },
    {
      "buffer": 0,
      "byteLength": 50464,
      "byteOffset": 166600,
      "byteStride": 16,
      "name": "floatBufferViews"
    }
  ],
  "buffers": [
    {
      "byteLength": 217064,
      "uri": "scene.bin"
    }
  ],
  "extensionsUsed": [
    "KHR_materials_specular"
  ],
  "images": [
    {
      "uri": "textures/VR_Hands_M_baseColor.png"
    }
  ],
  "materials": [
    {
      "doubleSided": true,
      "extensions": {
        "KHR_materials_specular": {
          "specularColorFactor": [
            1.0,
            1.0,
            1.0
          ],
          "specularFactor": 0.5043824895466348
        }
      },
      "name": "VR_Hands_M",
      "pbrMetallicRoughness": {
        "baseColorTexture": {
          "index": 0
        },
        "metallicFactor": 0.0
      }
    }
  ],
  "meshes": [
    {
      "name": "SM_HandsVR_Male_VR_Hands_M_0",
      "primitives": [
        {
          "attributes": {
            "JOINTS_0": 5,
            "NORMAL": 1,
            "POSITION": 0,
            "TEXCOORD_0": 2,
            "WEIGHTS_0": 6
          },
          "indices": 3,
          "material": 0,
          "mode": 4
        }
      ]
    }
  ],
  "nodes": [
    {
      "children": [
        1
      ],
      "matrix": [
        1.0,
        0.0,
        0.0,
        0.0,
        0.0,
        2.220446049250313e-16,
        -1.0,
        0.0,
        0.0,
        1.0,
        2.220446049250313e-16,
        0.0,
        0.0,
        0.0,
        0.0,
        1.0
      ],
      "name": "Sketchfab_model"
    },
    {
      "children": [
        2
      ],
      "matrix": [
        0.009999999776482582,
        0.0,
        0.0,
        0.0,
        0.0,
        0.0,
        0.009999999776482582,
        0.0,
        0.0,
        -0.009999999776482582,
        0.0,
        0.0,
        0.0,
        0.0,
        0.0,
        1.0
      ],
      "name": "31ee11bbbd9a49ac83a12a74f1fecac4.fbx"
    },
    {
      "children": [
        3
      ],
      "name": "Object_2"
    },
    {
      "children": [
        4
      ],
      "name": "RootNode"
    },
    {
      "children": [
        5,
        6,
        52
      ],
      "name": "Object_4"
    },
    {
      "children": [
        7
      ],
      "name": "_rootJoint"
    },
    {
      "mesh": 0,
      "name": "Object_6",
      "skin": 0
    },
    {
      "children": [
        8,
        30
      ],
      "name": "Root_01",
      "translation": [
        0.0,
        12.0,
        -2.0
      ]
    },
    {
      "children": [
        9
      ],
      "name": "J_Left_02",
      "rotation": [
        0.5565486550331116,
        -0.275728702545166,
        -0.2679646909236908,
        0.7364931702613831
      ],
      "translation": [
        24.63796043395996,
        3.97139573097229,
        1.9493438005447388
      ]
    },
    {
      "children": [
        10,
        14,
        18,
        22,
        26
      ],
      "name": "J_Left_Hand_03",
      "rotation": [
        0.03220004960894585,
        0.0038238174747675657,
        0.00249969563446939,
        0.9994710087776184
      ],
      "translation": [
        0.005323604680597782,
        5.659482002258301,
        -0.08576340973377228
      ]
    },
    {
      "children": [
        11
      ],
      "name": "J_Left_HandThumb1_04",
      "rotation": [
        -0.2227553278207779,
        0.45986807346343994,
        0.19252102077007294,
        0.8377571702003479
      ],
      "translation": [
        -3.5862550735473633,
        0.7716284394264221,
        1.1143436431884766
      ]
    },
    {
      "children": [
        12
      ],
      "name": "J_Left_HandThumb2_05",
      "rotation": [
        0.11044466495513916,
        0.0011405869154259562,
        -0.0005224623018875718,
        0.9938815832138062
      ],
      "translation": [
        -0.25511327385902405,
        2.928236961364746,
        -0.3570595383644104
      ]
    },
    {
      "children": [
        13
      ],
      "name": "J_Left_HandThumb3_06",
      "rotation": [
        -0.03600943833589554,
        -5.1578416961825513e-17,
        1.0292429690985012e-17,
        0.999351441860199
      ],
      "translation": [
        -0.21663600206375122,
        4.0370988845825195,
        -0.4207500219345093
      ]
    },
    {
      "name": "J_Left_HandThumb4_07",
      "rotation": [
        5.0089909997552695e-09,
        -8.933825901280557e-17,
        -4.5102810375396984e-17,
        1.0
      ],
      "translation": [
        -0.2334362119436264,
        3.0008633136749268,
        0.052372146397829056
      ]
    },
    {
      "children": [
        15
      ],
      "name": "J_Left_HandIndex1_08",
      "rotation": [
        -0.03467869386076927,
        -0.0018964695045724511,
        0.054573096334934235,
        0.9979056119918823
      ],
      "translation": [
        -3.6665234565734863,
        7.560744285583496,
        -1.929523229598999
      ]
    },
    {
      "children": [
        16
      ],
      "name": "J_Left_HandIndex2_09",
      "rotation": [
        -0.016565844416618347,
        1.0661850537784664e-16,
        5.728523526950236e-17,
        0.999862790107727
      ],
      "translation": [
        -0.3218327462673187,
        4.691822528839111,
        0.12824700772762299
      ]
    },
    {
      "children": [
        17
      ],
      "name": "J_Left_HandIndex3_010",
      "rotation": [
        0.026845792308449745,
        9.82271948148596e-17,
        3.9010439875486724e-17,
        0.9996396899223328
      ],
      "translation": [
        -0.10836999863386154,
        2.726752281188965,
        0.2749742567539215
      ]
    },
    {
      "name": "J_Left_HandIndex4_011",
      "rotation": [
        -1.5432046751584494e-09,
        -3.469446951953614e-18,
        1.249000902703301e-16,
        1.0
      ],
      "translation": [
        -0.08589779585599899,
        2.1812093257904053,
        0.07124625146389008
      ]
    },
    {
      "children": [
        19
      ],
      "name": "J_Left_HandMiddle1_012",
      "rotation": [
        0.06149011850357056,
        -3.732008917722851e-05,
        -0.000606134592089802,
        0.9981076121330261
      ],
      "translation": [
        -1.2568167448043823,
        7.651179790496826,
        -2.070892333984375
      ]
    },
    {
      "children": [
        20
      ],
      "name": "J_Left_HandMiddle2_013",
      "rotation": [
        0.07764033228158951,
        3.306608176566425e-17,
        3.9184382723416825e-17,
        0.9969814419746399
      ],
      "translation": [
        -0.3702000081539154,
        5.34291410446167,
        0.559508740901947
      ]
    },
    {
      "children": [
        21
      ],
      "name": "J_Left_HandMiddle3_014",
      "rotation": [
        0.06231207028031349,
        1.471465139661803e-17,
        2.689093530185581e-17,
        0.9980568289756775
      ],
      "translation": [
        -0.2659062147140503,
        3.322509765625,
        0.3147149085998535
      ]
    },
    {
      "name": "J_Left_HandMiddle4_015",
      "rotation": [
        2.625390349564327e-09,
        -7.45931094670027e-17,
        -4.85722573273506e-17,
        1.0
      ],
      "translation": [
        -0.167480006814003,
        2.1745996475219727,
        0.09740553051233292
      ]
    },
    {
      "children": [
        23
      ],
      "name": "J_Left_HandRing1_016",
      "rotation": [
        0.11051052063703537,
        -0.005963813979178667,
        -0.027439424768090248,
        0.9934781789779663
      ],
      "translation": [
        1.0622791051864624,
        7.513143539428711,
        -1.281495451927185
      ]
    },
    {
      "children": [
        24
      ],
      "name": "J_Left_HandRing2_017",
      "rotation": [
        0.159915953874588,
        0.05762747675180435,
        -0.02991112321615219,
        0.984993040561676
      ],
      "translation": [
        -0.042002927511930466,
        4.728600025177002,
        0.12401481717824936
      ]
    },
    {
      "children": [
        25
      ],
      "name": "J_Left_HandRing3_00",
      "rotation": [
        -0.019924892112612724,
        0.0015708972932770848,
        -0.014615310356020927,
        0.9996933937072754
      ],
      "translation": [
        0.10694923996925354,
        2.7839443683624268,
        0.23019179701805115
      ]
    },
    {
      "name": "J_Left_HandRing4_018",
      "rotation": [
        1.6877584885222063e-09,
        2.883977778811442e-17,
        -2.3635607360183997e-17,
        1.0
      ],
      "translation": [
        -0.14423683285713196,
        2.462902307510376,
        0.042984459549188614
      ]
    },
    {
      "children": [
        27
      ],
      "name": "J_Left_HandPinky1_019",
      "rotation": [
        0.16807298362255096,
        -0.013734552077949047,
        -0.0847078189253807,
        0.982032299041748
      ],
      "translation": [
        2.882901668548584,
        6.733603000640869,
        -0.07654611766338348
      ]
    },
    {
      "children": [
        28
      ],
      "name": "J_Left_HandPinky2_020",
      "rotation": [
        0.15318500995635986,
        -0.0008189098443835974,
        -0.02199532277882099,
        0.987952470779419
      ],
      "translation": [
        0.1420908123254776,
        3.8278298377990723,
        -0.20524071156978607
      ]
    },
    {
      "children": [
        29
      ],
      "name": "J_Left_HandPinky3_021",
      "rotation": [
        0.01613747701048851,
        -0.0005282851052470505,
        0.03271475061774254,
        0.9993343949317932
      ],
      "translation": [
        -0.24311032891273499,
        2.333766460418701,
        -0.003548242151737213
      ]
    },
    {
      "name": "J_Left_HandPinky4_022",
      "rotation": [
        -4.261518693482458e-09,
        -5.204170427930421e-17,
        -2.7755575615628914e-17,
        1.0
      ],
      "translation": [
        -0.0267733633518219,
        1.890616536140442,
        -0.03274847939610481
      ]
    },
    {
      "children": [
        31
      ],
      "name": "J_Right_023",
      "rotation": [
        -0.8207939267158508,
        -0.23105953633785248,
        0.052452925592660904,
        0.5197667479515076
      ],
      "translation": [
        -26.737964630126953,
        0.19920000433921814,
        1.9493438005447388
      ]
    },
    {
      "children": [
        32,
        36,
        40,
        44,
        48
      ],
      "name": "J_Right_Hand_024",
      "rotation": [
        0.14437533915042877,
        0.004080632701516151,
        0.0020538982935249805,
        0.98951256275177
      ],
      "translation": [
        -0.0053206393495202065,
        -5.6594343185424805,
        0.08581433445215225
      ]
    },
    {
      "children": [
        33
      ],
      "name": "J_Right_HandThumb1_025",
      "rotation": [
        -0.2227553278207779,
        0.45986807346343994,
        0.19252102077007294,
        0.8377571702003479
      ],
      "translation": [
        3.5862538814544678,
        -0.7716245651245117,
        -1.114343285560608
      ]
    },
    {
      "children": [
        34
      ],
      "name": "J_Right_HandThumb2_026",
      "rotation": [
        0.08109226822853088,
        0.0011554955272004008,
        -0.0004886051756329834,
        0.9967058300971985
      ],
      "translation": [
        0.2551616132259369,
        -2.9282257556915283,
        0.3570290207862854
      ]
    },
    {
      "children": [
        35
      ],
      "name": "J_Right_HandThumb3_027",
      "rotation": [
        -0.03600943833589554,
        -1.797945088717582e-16,
        -2.0365294214535173e-17,
        0.999351441860199
      ],
      "translation": [
        0.216581329703331,
        -4.037111282348633,
        0.4207864999771118
      ]
    },
    {
      "name": "J_Right_HandThumb4_028",
      "rotation": [
        1.053671194739536e-08,
        2.0816681711721685e-17,
        2.7755575615628914e-17,
        1.0
      ],
      "translation": [
        0.23346851766109467,
        -3.0008535385131836,
        -0.052391279488801956
      ]
    },
    {
      "children": [
        37
      ],
      "name": "J_Right_HandIndex1_029",
      "rotation": [
        0.019932789728045464,
        0.0010901032947003841,
        0.054595157504081726,
        0.9983090162277222
      ],
      "translation": [
        3.6665244102478027,
        -7.5607452392578125,
        1.9295374155044556
      ]
    },
    {
      "children": [
        38
      ],
      "name": "J_Right_HandIndex2_030",
      "rotation": [
        0.009211871773004532,
        6.747336079396688e-17,
        2.713517030387944e-17,
        0.9999575614929199
      ],
      "translation": [
        0.32183000445365906,
        -4.691819190979004,
        -0.12829610705375671
      ]
    },
    {
      "children": [
        39
      ],
      "name": "J_Right_HandIndex3_031",
      "rotation": [
        0.026845792308449745,
        3.768785086790834e-17,
        3.0224160496172966e-17,
        0.9996396899223328
      ],
      "translation": [
        0.1083717867732048,
        -2.7267513275146484,
        -0.27492719888687134
      ]
    },
    {
      "name": "J_Right_HandIndex4_032",
      "rotation": [
        7.450580596923828e-09,
        -2.688821387764051e-17,
        1.0408340855860843e-17,
        1.0
      ],
      "translation": [
        0.08589929342269897,
        -2.181220769882202,
        -0.07127092778682709
      ]
    },
    {
      "children": [
        41
      ],
      "name": "J_Right_HandMiddle1_033",
      "rotation": [
        0.10278887301683426,
        -6.240017683012411e-05,
        -0.0006040679290890694,
        0.9947029948234558
      ],
      "translation": [
        1.2568169832229614,
        -7.651176452636719,
        2.070847511291504
      ]
    },
    {
      "children": [
        42
      ],
      "name": "J_Right_HandMiddle2_034",
      "rotation": [
        0.07764033228158951,
        -2.514639650073045e-15,
        5.663052512338909e-17,
        0.9969814419746399
      ],
      "translation": [
        0.3701949417591095,
        -5.342916488647461,
        -0.5595038533210754
      ]
    },
    {
      "children": [
        43
      ],
      "name": "J_Right_HandMiddle3_035",
      "rotation": [
        0.06231207028031349,
        1.228406673019352e-15,
        -2.574561143041978e-16,
        0.9980568289756775
      ],
      "translation": [
        0.26591092348098755,
        -3.322514772415161,
        -0.3147087097167969
      ]
    },
    {
      "name": "J_Right_HandMiddle4_036",
      "rotation": [
        7.450580596923828e-09,
        3.469446951953614e-18,
        1.3877787807814457e-17,
        1.0
      ],
      "translation": [
        0.167484849691391,
        -2.1745762825012207,
        -0.09738120436668396
      ]
    },
    {
      "children": [
        45
      ],
      "name": "J_Right_HandRing1_037",
      "rotation": [
        0.09950249642133713,
        -0.005659598391503096,
        -0.027503781020641327,
        0.9946410059928894
      ],
      "translation": [
        -1.0622767210006714,
        -7.513139724731445,
        1.2814801931381226
      ]
    },
    {
      "children": [
        46
      ],
      "name": "J_Right_HandRing2_038",
      "rotation": [
        0.08140680193901062,
        -1.3478220694462554e-17,
        -8.244313950691464e-17,
        0.9966809749603271
      ],
      "translation": [
        0.042001690715551376,
        -4.728605270385742,
        -0.12403347343206406
      ]
    },
    {
      "children": [
        47
      ],
      "name": "J_Right_HandRing3_039",
      "rotation": [
        0.07607533782720566,
        0.00016149147995747626,
        -0.014698603190481663,
        0.9969937205314636
      ],
      "translation": [
        -0.10695771872997284,
        -2.783949613571167,
        -0.23023003339767456
      ]
    },
    {
      "name": "J_Right_HandRing4_040",
      "rotation": [
        1.053671194739536e-08,
        1.3877787807814457e-17,
        -1.4622625259801626e-25,
        1.0
      ],
      "translation": [
        0.14424967765808105,
        -2.4628961086273193,
        -0.04290507733821869
      ]
    },
    {
      "children": [
        49
      ],
      "name": "J_Right_HandPinky1_041",
      "rotation": [
        0.18524552881717682,
        -0.015215933322906494,
        -0.08445429056882858,
        0.9789382219314575
      ],
      "translation": [
        -2.882897138595581,
        -6.733603477478027,
        0.07654476165771484
      ]
    },
    {
      "children": [
        50
      ],
      "name": "J_Right_HandPinky2_042",
      "rotation": [
        0.19857299327850342,
        -0.0018321627285331488,
        -0.02193417400121689,
        0.979839026927948
      ],
      "translation": [
        -0.1420951783657074,
        -3.8278305530548096,
        0.20524726808071136
      ]
    },
    {
      "children": [
        51
      ],
      "name": "J_Right_HandPinky3_043",
      "rotation": [
        0.16017863154411316,
        0.004198182839900255,
        0.032448556274175644,
        0.9865456223487854
      ],
      "translation": [
        0.2431078851222992,
        -2.3337807655334473,
        0.003505116794258356
      ]
    },
    {
      "name": "J_Right_HandPinky4_044",
      "rotation": [
        1.2904783908140871e-08,
        -4.163336342344337e-17,
        -2.7755575615628914e-17,
        1.0
      ],
      "translation": [
        0.02677862159907818,
        -1.8906062841415405,
        0.03275876119732857
      ]
    },
    {
      "name": "SM_HandsVR_Male"
    }
  ],
  "samplers": [
    {
      "magFilter": 9729,
      "minFilter": 9987,
      "wrapS": 10497,
      "wrapT": 10497
    }
  ],
  "scene": 0,
  "scenes": [
    {
      "name": "Sketchfab_Scene",
      "nodes": [
        0
      ]
    }
  ],
  "skins": [
    {
      "inverseBindMatrices": 4,
      "joints": [
        5,
        7,
        8,
        9,
        10,
        11,
        12,
        13,
        14,
        15,
        16,
        17,
        18,
        19,
        20,
        21,
        22,
        23,
        24,
        25,
        26,
        27,
        28,
        29,
        30,
        31,
        32,
        33,
        34,
        35,
        36,
        37,
        38,
        39,
        40,
        41,
        42,
        43,
        44,
        45,
        46,
        47,
        48,
        49,
        50,
        51
      ],
      "skeleton": 5
    }
  ],
  "textures": [
    {
      "sampler": 0,
      "source": 0
    }
  ]
}
